# xmcd
#
# Track frame offsets: 
#        150
#        12925
#        26780
#        41870
#        54572
#        65815
#        80040
#        94402
#        109997
#        123797
#        138557
#        153567
#        168735
#        183625
#        198357
#        212670
#        227267
#        241215
#        255787
#        269877
#        283390
#        295832
#        310107
#        323702
#
# Disc length: 4491 seconds
#
# Revision: 1
# Processed by: cddbd v1.5.2PL0 Copyright (c) Steve Scherf et al.
# Submitted via: ExactAudioCopyFreeDBPlugin 1.0
#
DISCID=6f118918
DTITLE=Various Artist - Texas Girls (1926-1929)
DYEAR=1993
DGENRE=Blues
TTITLE0=Lillian Miller - Kitchen Blues
TTITLE1=Lillian Miller - Harbor Blues
TTITLE2=Lillian Miller - You Just Can't Keep a Good Woman Down
TTITLE3=Lillian Miller - Butcher Shop Blues
TTITLE4=Lillian Miller - Dead Drunk Blues
TTITLE5=Hattie Hudson - Doggone My Good Luck Soul
TTITLE6=Hattie Hudson - Black Hand Blues
TTITLE7=Gertrude Perkins - No Easy Rider Blues
TTITLE8=Gertrude Perkins - Gold Daddy Blues
TTITLE9=Ida May Mack - Wrong Doin' Daddy [take 1]
TTITLE10=Ida May Mack - Wrong Doin' Daddy [take 2]
TTITLE11=Ida May Mack - Elm Street Blues [take 1]
TTITLE12=Ida May Mack - Elm Street Blues [take 2]
TTITLE13=Ida May Mack - Mr. Moore Blues
TTITLE14=Ida May Mack - When You Lose Your Daddy
TTITLE15=Ida May Mack - Mr. Forty-Nine Blues [take 1]
TTITLE16=Ida May Mack - Mr. Forty-Nine Blues [take 2]
TTITLE17=Ida May Mack - Goodbye Rider [take 1]
TTITLE18=Ida May Mack - Goodbye Rider [take 2]
TTITLE19=Bobbie Cadillac - Carbolic Acid Blues
TTITLE20=Bobbie Cadillac - I Can't Stand That
TTITLE21=Bobbie Cadillac - He Throws That Thing
TTITLE22=Bobbie Cadillac - Listen Everybody
TTITLE23=Bobbie Cadillac - Easin' In
EXTD=
EXTT0=
EXTT1=
EXTT2=
EXTT3=
EXTT4=
EXTT5=
EXTT6=
EXTT7=
EXTT8=
EXTT9=
EXTT10=
EXTT11=
EXTT12=
EXTT13=
EXTT14=
EXTT15=
EXTT16=
EXTT17=
EXTT18=
EXTT19=
EXTT20=
EXTT21=
EXTT22=
EXTT23=
PLAYORDER=
